<svg width="256" height="120" viewBox="0 0 256 120" fill="none" xmlns="http://www.w3.org/2000/svg">
<g filter="url(#filter0_d_521_20)">
<path d="M84.6251 8.39599C86.1051 5.73199 88.2264 4.39999 90.9891 4.39999H118.073C119.158 4.39999 120.096 4.79466 120.885 5.584C121.674 6.37333 122.069 7.31066 122.069 8.39599V104.004C122.069 105.089 121.674 106.027 120.885 106.816C120.096 107.605 119.158 108 118.073 108H91.2851C90.1997 108 89.2624 107.605 88.4731 106.816C87.6837 106.027 87.2891 105.089 87.2891 104.004V58.124L76.4851 79.436C76.1891 80.1267 75.4984 80.916 74.4131 81.804C73.3277 82.692 71.9464 83.136 70.2691 83.136H60.2051C58.5277 83.136 57.1464 82.692 56.0611 81.804C54.9757 80.916 54.2851 80.1267 53.9891 79.436L43.1851 58.124V104.004C43.1851 105.089 42.7904 106.027 42.0011 106.816C41.2117 107.605 40.2744 108 39.1891 108H12.4011C11.3157 108 10.3784 107.605 9.58906 106.816C8.79973 106.027 8.40506 105.089 8.40506 104.004V8.39599C8.40506 7.31066 8.79973 6.37333 9.58906 5.584C10.3784 4.79466 11.3157 4.39999 12.4011 4.39999H39.4851C42.2477 4.39999 44.3691 5.73199 45.8491 8.39599L65.2371 43.916L84.6251 8.39599Z" fill="#BBF7D0"/>
<path d="M233.307 53.98C237.155 55.164 240.461 57.7787 243.223 61.824C245.986 65.7707 247.367 70.3093 247.367 75.44C247.367 86.392 243.815 94.5813 236.711 100.008C229.607 105.336 219.247 108 205.631 108H144.655C143.57 108 142.633 107.605 141.843 106.816C141.054 106.027 140.659 105.089 140.659 104.004V8.39599C140.659 7.31066 141.054 6.37333 141.843 5.584C142.633 4.79466 143.57 4.39999 144.655 4.39999H204.151C218.162 4.39999 228.473 6.96533 235.083 12.096C241.793 17.128 245.147 24.7747 245.147 35.036V35.48C245.147 40.216 243.865 44.2613 241.299 47.616C238.734 50.9707 236.07 53.092 233.307 53.98ZM205.039 36.368C205.039 34.592 204.497 33.0627 203.411 31.78C202.425 30.4973 200.945 29.856 198.971 29.856H179.139V43.324H198.971C200.945 43.324 202.425 42.6333 203.411 41.252C204.497 39.772 205.039 38.144 205.039 36.368ZM200.599 82.544C202.869 82.544 204.546 81.804 205.631 80.324C206.815 78.7453 207.407 77.0187 207.407 75.144V74.996C207.407 73.1213 206.766 71.4933 205.483 70.112C204.299 68.7307 202.671 68.04 200.599 68.04H179.139V82.544H200.599Z" fill="#9333EA"/>
</g>
<defs>
<filter id="filter0_d_521_20" x="0.405273" y="0.399994" width="254.962" height="119.6" filterUnits="userSpaceOnUse" color-interpolation-filters="sRGB">
<feFlood flood-opacity="0" result="BackgroundImageFix"/>
<feColorMatrix in="SourceAlpha" type="matrix" values="0 0 0 0 0 0 0 0 0 0 0 0 0 0 0 0 0 0 127 0" result="hardAlpha"/>
<feOffset dy="4"/>
<feGaussianBlur stdDeviation="4"/>
<feComposite in2="hardAlpha" operator="out"/>
<feColorMatrix type="matrix" values="0 0 0 0 0 0 0 0 0 0 0 0 0 0 0 0 0 0 0.25 0"/>
<feBlend mode="normal" in2="BackgroundImageFix" result="effect1_dropShadow_521_20"/>
<feBlend mode="normal" in="SourceGraphic" in2="effect1_dropShadow_521_20" result="shape"/>
</filter>
</defs>
</svg>
